<svg width="201" height="194" viewBox="0 0 201 194" fill="none" xmlns="http://www.w3.org/2000/svg">
<rect width="201" height="194" fill="white"/>
<mask id="path-1-inside-1_4_52" fill="white">
<path fill-rule="evenodd" clip-rule="evenodd" d="M130.634 88.1763L100.5 34L70.3657 88.1763C65.7376 94.4132 63 102.137 63 110.5C63 131.211 79.7893 148 100.5 148C121.211 148 138 131.211 138 110.5C138 102.137 135.262 94.4133 130.634 88.1763Z"/>
</mask>
<path fill-rule="evenodd" clip-rule="evenodd" d="M130.634 88.1763L100.5 34L70.3657 88.1763C65.7376 94.4132 63 102.137 63 110.5C63 131.211 79.7893 148 100.5 148C121.211 148 138 131.211 138 110.5C138 102.137 135.262 94.4133 130.634 88.1763Z" fill="white"/>
<path d="M100.5 34L103.122 32.5417L100.5 27.8283L97.8783 32.5417L100.5 34ZM130.634 88.1763L128.013 89.6346L128.108 89.8062L128.225 89.964L130.634 88.1763ZM70.3657 88.1763L72.7748 89.9639L72.8919 89.8062L72.9874 89.6345L70.3657 88.1763ZM97.8783 35.4583L128.013 89.6346L133.256 86.718L103.122 32.5417L97.8783 35.4583ZM72.9874 89.6345L103.122 35.4583L97.8783 32.5417L67.7439 86.718L72.9874 89.6345ZM66 110.5C66 102.802 68.5174 95.7015 72.7748 89.9639L67.9565 86.3886C62.9579 93.125 60 101.471 60 110.5H66ZM100.5 145C81.4462 145 66 129.554 66 110.5H60C60 132.868 78.1325 151 100.5 151V145ZM135 110.5C135 129.554 119.554 145 100.5 145V151C122.868 151 141 132.868 141 110.5H135ZM128.225 89.964C132.483 95.7015 135 102.802 135 110.5H141C141 101.471 138.042 93.125 133.044 86.3886L128.225 89.964Z" fill="black" mask="url(#path-1-inside-1_4_52)"/>
<rect x="72.5" y="142.5" width="56" height="11" fill="white" stroke="black" stroke-width="3"/>
<path d="M66.7848 168.5L71.9848 156.5H129.045L134.645 168.5H66.7848Z" fill="white" stroke="black" stroke-width="3"/>
<circle cx="100.5" cy="27.5" r="8" fill="white" stroke="black" stroke-width="3"/>
</svg>
