<svg width="201" height="194" viewBox="0 0 201 194" fill="none" xmlns="http://www.w3.org/2000/svg">
<rect width="201" height="194" fill="white"/>
<mask id="path-1-inside-1_4_15" fill="white">
<path fill-rule="evenodd" clip-rule="evenodd" d="M108.286 28.3475L102 9L95.7136 28.3475H75.3704L91.4905 40.0594C90.4413 42.8216 89.5422 46.0136 88.8301 49.5329L88.025 52.0105C85.1136 50.7181 81.8907 50 78.5 50C67.9238 50 58.9795 56.9866 56.0305 66.5962C53.3861 65.5656 50.5091 65 47.5 65C34.5213 65 24 75.5213 24 88.5C24 91.9543 24.7453 95.2345 26.0838 98.1886C26.9902 104.6 35.1908 110.381 48 114.64V155.5V156H48.036C49.0784 163.224 72.6161 169 101.5 169C130.384 169 153.922 163.224 154.964 156H155V155.5V114.64C167.809 110.381 176.01 104.6 176.916 98.1886C178.255 95.2345 179 91.9543 179 88.5C179 75.5213 168.479 65 155.5 65C152.828 65 150.26 65.446 147.866 66.2677C144.816 56.8278 135.955 50 125.5 50C122.109 50 118.886 50.7181 115.975 52.0105L112.172 40.305L128.63 28.3475H108.286Z"/>
</mask>
<path fill-rule="evenodd" clip-rule="evenodd" d="M108.286 28.3475L102 9L95.7136 28.3475H75.3704L91.4905 40.0594C90.4413 42.8216 89.5422 46.0136 88.8301 49.5329L88.025 52.0105C85.1136 50.7181 81.8907 50 78.5 50C67.9238 50 58.9795 56.9866 56.0305 66.5962C53.3861 65.5656 50.5091 65 47.5 65C34.5213 65 24 75.5213 24 88.5C24 91.9543 24.7453 95.2345 26.0838 98.1886C26.9902 104.6 35.1908 110.381 48 114.64V155.5V156H48.036C49.0784 163.224 72.6161 169 101.5 169C130.384 169 153.922 163.224 154.964 156H155V155.5V114.64C167.809 110.381 176.01 104.6 176.916 98.1886C178.255 95.2345 179 91.9543 179 88.5C179 75.5213 168.479 65 155.5 65C152.828 65 150.26 65.446 147.866 66.2677C144.816 56.8278 135.955 50 125.5 50C122.109 50 118.886 50.7181 115.975 52.0105L112.172 40.305L128.63 28.3475H108.286Z" fill="white"/>
<path d="M102 9L104.853 8.07295L102 -0.708203L99.1468 8.07295L102 9ZM108.286 28.3475L105.433 29.2746L106.107 31.3475H108.286V28.3475ZM95.7136 28.3475V31.3475H97.8932L98.5668 29.2746L95.7136 28.3475ZM75.3704 28.3475V25.3475H66.1374L73.6071 30.7746L75.3704 28.3475ZM91.4905 40.0594L94.295 41.1247L95.1094 38.9805L93.2538 37.6324L91.4905 40.0594ZM88.8301 49.5329L91.6832 50.4599L91.7364 50.2964L91.7705 50.1278L88.8301 49.5329ZM88.025 52.0105L86.8079 54.7525L89.8498 56.1028L90.8782 52.9375L88.025 52.0105ZM56.0305 66.5962L54.9411 69.3914L57.9508 70.5644L58.8984 67.4763L56.0305 66.5962ZM26.0838 98.1886L29.0543 97.7687L28.9941 97.3425L28.8164 96.9504L26.0838 98.1886ZM48 114.64H51V112.476L48.9466 111.793L48 114.64ZM48 156H45V159H48V156ZM48.036 156L51.0053 155.572L50.6342 153H48.036V156ZM154.964 156V153H152.366L151.995 155.572L154.964 156ZM155 156V159H158V156H155ZM155 114.64L154.053 111.793L152 112.476V114.64H155ZM176.916 98.1886L174.184 96.9504L174.006 97.3425L173.946 97.7687L176.916 98.1886ZM147.866 66.2677L145.011 67.1901L145.951 70.0971L148.84 69.1052L147.866 66.2677ZM115.975 52.0105L113.122 52.9375L114.15 56.1028L117.192 54.7525L115.975 52.0105ZM112.172 40.305L110.408 37.8779L108.645 39.1591L109.318 41.232L112.172 40.305ZM128.63 28.3475L130.393 30.7746L137.863 25.3475H128.63V28.3475ZM99.1468 9.92705L105.433 29.2746L111.14 27.4205L104.853 8.07295L99.1468 9.92705ZM98.5668 29.2746L104.853 9.92705L99.1468 8.07295L92.8604 27.4205L98.5668 29.2746ZM75.3704 31.3475H95.7136V25.3475H75.3704V31.3475ZM93.2538 37.6324L77.1338 25.9205L73.6071 30.7746L89.7271 42.4865L93.2538 37.6324ZM91.7705 50.1278C92.4563 46.7386 93.3139 43.7078 94.295 41.1247L88.686 38.9942C87.5688 41.9355 86.6281 45.2886 85.8897 48.9379L91.7705 50.1278ZM90.8782 52.9375L91.6832 50.4599L85.9769 48.6058L85.1719 51.0834L90.8782 52.9375ZM78.5 53C81.4633 53 84.2723 53.6269 86.8079 54.7525L89.2422 49.2685C85.9549 47.8093 82.318 47 78.5 47V53ZM58.8984 67.4763C61.4718 59.091 69.2785 53 78.5 53V47C66.5692 47 56.4872 54.8821 53.1625 65.716L58.8984 67.4763ZM47.5 68C50.1304 68 52.6383 68.4939 54.9411 69.3914L57.1198 63.8009C54.1338 62.6372 50.8877 62 47.5 62V68ZM27 88.5C27 77.1782 36.1782 68 47.5 68V62C32.8645 62 21 73.8645 21 88.5H27ZM28.8164 96.9504C27.6506 94.3776 27 91.5188 27 88.5H21C21 92.3897 21.84 96.0914 23.3513 99.4268L28.8164 96.9504ZM48.9466 111.793C42.7118 109.72 37.7803 107.333 34.36 104.808C30.8944 102.25 29.3459 99.8317 29.0543 97.7687L23.1134 98.6085C23.7281 102.957 26.733 106.635 30.7966 109.635C34.9055 112.668 40.4789 115.301 47.0534 117.487L48.9466 111.793ZM51 155.5V114.64H45V155.5H51ZM51 156V155.5H45V156H51ZM48.036 153H48V159H48.036V153ZM101.5 166C87.2295 166 74.3728 164.571 65.0381 162.294C60.3533 161.152 56.6991 159.831 54.2241 158.456C51.5583 156.976 51.0504 155.884 51.0053 155.572L45.0668 156.428C45.5428 159.728 48.3681 162.067 51.3113 163.702C54.4455 165.442 58.6764 166.919 63.6168 168.124C73.5325 170.542 86.8866 172 101.5 172V166ZM151.995 155.572C151.95 155.884 151.442 156.976 148.776 158.456C146.301 159.831 142.647 161.152 137.962 162.294C128.627 164.571 115.77 166 101.5 166V172C116.113 172 129.467 170.542 139.383 168.124C144.324 166.919 148.555 165.442 151.689 163.702C154.632 162.067 157.457 159.728 157.933 156.428L151.995 155.572ZM155 153H154.964V159H155V153ZM152 155.5V156H158V155.5H152ZM152 114.64V155.5H158V114.64H152ZM173.946 97.7687C173.654 99.8317 172.106 102.25 168.64 104.808C165.22 107.333 160.288 109.72 154.053 111.793L155.947 117.487C162.521 115.301 168.094 112.668 172.203 109.635C176.267 106.635 179.272 102.957 179.887 98.6085L173.946 97.7687ZM176 88.5C176 91.5188 175.349 94.3776 174.184 96.9504L179.649 99.4268C181.16 96.0914 182 92.3897 182 88.5H176ZM155.5 68C166.822 68 176 77.1782 176 88.5H182C182 73.8645 170.136 62 155.5 62V68ZM148.84 69.1052C150.924 68.3897 153.164 68 155.5 68V62C152.492 62 149.595 62.5024 146.892 63.4303L148.84 69.1052ZM125.5 53C134.616 53 142.35 58.9523 145.011 67.1901L150.721 65.3453C147.282 54.7033 137.295 47 125.5 47V53ZM117.192 54.7525C119.728 53.6269 122.537 53 125.5 53V47C121.682 47 118.045 47.8093 114.758 49.2685L117.192 54.7525ZM109.318 41.232L113.122 52.9375L118.828 51.0834L115.025 39.3779L109.318 41.232ZM126.866 25.9205L110.408 37.8779L113.935 42.732L130.393 30.7746L126.866 25.9205ZM108.286 31.3475H128.63V25.3475H108.286V31.3475Z" fill="black" mask="url(#path-1-inside-1_4_15)"/>
</svg>
