<svg width="201" height="194" viewBox="0 0 201 194" fill="none" xmlns="http://www.w3.org/2000/svg">
<rect width="201" height="194" fill="white"/>
<path d="M147.627 107.5C147.627 126.265 144.404 143.182 139.251 155.352C136.674 161.44 133.643 166.27 130.354 169.556C127.072 172.836 123.617 174.5 120.127 174.5C116.636 174.5 113.181 172.836 109.899 169.556C106.61 166.27 103.579 161.44 101.002 155.352C95.8494 143.182 92.6265 126.265 92.6265 107.5C92.6265 88.7354 95.8494 71.8182 101.002 59.648C103.579 53.5599 106.61 48.7299 109.899 45.4442C113.181 42.1644 116.636 40.5 120.127 40.5C123.617 40.5 127.072 42.1644 130.354 45.4442C133.643 48.7299 136.674 53.5599 139.251 59.648C144.404 71.8182 147.627 88.7354 147.627 107.5Z" fill="white" stroke="black" stroke-width="3"/>
<path d="M102.036 100.873C90.1107 111.911 77.1854 119.496 65.9822 122.878C54.6715 126.293 45.6328 125.303 40.8004 120.082C35.968 114.862 35.6778 105.773 39.9546 94.7597C44.1908 83.8506 52.7495 71.5487 64.6747 60.5103C76.5998 49.4719 89.5251 41.8874 100.728 38.505C112.039 35.0902 121.078 36.0804 125.91 41.301C130.743 46.5216 131.033 55.6098 126.756 66.6235C122.52 77.5325 113.961 89.8345 102.036 100.873Z" fill="white" stroke="black" stroke-width="3"/>
<path d="M106.5 29C106.5 32.9735 105.745 36.4976 104.59 38.9723C103.379 41.5687 102.004 42.5 101 42.5C99.996 42.5 98.6212 41.5687 97.4095 38.9723C96.2547 36.4976 95.5 32.9735 95.5 29C95.5 25.0265 96.2547 21.5024 97.4095 19.0277C98.6212 16.4313 99.996 15.5 101 15.5C102.004 15.5 103.379 16.4313 104.59 19.0277C105.745 21.5024 106.5 25.0265 106.5 29Z" fill="white" stroke="black" stroke-width="3"/>
<path d="M125.5 29C125.5 32.9735 124.745 36.4976 123.59 38.9723C122.379 41.5687 121.004 42.5 120 42.5C118.996 42.5 117.621 41.5687 116.41 38.9723C115.255 36.4976 114.5 32.9735 114.5 29C114.5 25.0265 115.255 21.5024 116.41 19.0277C117.621 16.4313 118.996 15.5 120 15.5C121.004 15.5 122.379 16.4313 123.59 19.0277C124.745 21.5024 125.5 25.0265 125.5 29Z" fill="white" stroke="black" stroke-width="3"/>
</svg>
