<svg width="201" height="194" viewBox="0 0 201 194" fill="none" xmlns="http://www.w3.org/2000/svg">
<rect x="0.5" y="0.5" width="200" height="193" fill="white"/>
<mask id="path-2-inside-1_1_66" fill="white">
<path fill-rule="evenodd" clip-rule="evenodd" d="M72.9351 48.5285C75.3185 47.5649 77 45.2288 77 42.5C77 38.9101 74.0899 36 70.5 36C66.9101 36 64 38.9101 64 42.5C64 46.0631 66.8669 48.9565 70.4198 48.9995L62.4774 100.658C60.2981 101.123 58.2007 101.628 56.194 102.169L29.7321 65.4337C31.1205 64.2416 32 62.4735 32 60.5C32 56.9101 29.0899 54 25.5 54C21.9101 54 19 56.9101 19 60.5C19 64.0899 21.9101 67 25.5 67C26.2702 67 27.0091 66.866 27.6947 66.6202L30.8237 116.884C30.2814 118.063 30 119.27 30 120.5C30 125.989 35.6057 131.039 45 135.038V151H155V135.038C164.394 131.039 170 125.989 170 120.5C170 119.344 169.752 118.208 169.272 117.098L177.854 65.7898C178.38 65.927 178.931 66 179.5 66C183.09 66 186 63.0899 186 59.5C186 55.9101 183.09 53 179.5 53C175.91 53 173 55.9101 173 59.5C173 61.5602 173.958 63.3966 175.454 64.5875L142.317 101.779C139.972 101.18 137.511 100.631 134.948 100.134L124.766 48.8769C127.75 48.288 130 45.6568 130 42.5C130 38.9101 127.09 36 123.5 36C119.91 36 117 38.9101 117 42.5C117 45.4742 118.998 47.9818 121.724 48.7545L103.225 97.0245C102.156 97.0082 101.081 97 100 97C97.9827 97 95.9853 97.0286 94.0113 97.0848L72.9351 48.5285Z"/>
</mask>
<path fill-rule="evenodd" clip-rule="evenodd" d="M72.9351 48.5285C75.3185 47.5649 77 45.2288 77 42.5C77 38.9101 74.0899 36 70.5 36C66.9101 36 64 38.9101 64 42.5C64 46.0631 66.8669 48.9565 70.4198 48.9995L62.4774 100.658C60.2981 101.123 58.2007 101.628 56.194 102.169L29.7321 65.4337C31.1205 64.2416 32 62.4735 32 60.5C32 56.9101 29.0899 54 25.5 54C21.9101 54 19 56.9101 19 60.5C19 64.0899 21.9101 67 25.5 67C26.2702 67 27.0091 66.866 27.6947 66.6202L30.8237 116.884C30.2814 118.063 30 119.27 30 120.5C30 125.989 35.6057 131.039 45 135.038V151H155V135.038C164.394 131.039 170 125.989 170 120.5C170 119.344 169.752 118.208 169.272 117.098L177.854 65.7898C178.38 65.927 178.931 66 179.5 66C183.09 66 186 63.0899 186 59.5C186 55.9101 183.09 53 179.5 53C175.91 53 173 55.9101 173 59.5C173 61.5602 173.958 63.3966 175.454 64.5875L142.317 101.779C139.972 101.18 137.511 100.631 134.948 100.134L124.766 48.8769C127.75 48.288 130 45.6568 130 42.5C130 38.9101 127.09 36 123.5 36C119.91 36 117 38.9101 117 42.5C117 45.4742 118.998 47.9818 121.724 48.7545L103.225 97.0245C102.156 97.0082 101.081 97 100 97C97.9827 97 95.9853 97.0286 94.0113 97.0848L72.9351 48.5285Z" fill="white"/>
<path d="M72.9351 48.5285L71.8106 45.7472L68.958 46.9006L70.1831 49.723L72.9351 48.5285ZM70.4198 48.9995L73.3849 49.4554L73.9098 46.0415L70.4561 45.9997L70.4198 48.9995ZM62.4774 100.658L63.104 103.592L65.1281 103.159L65.4426 101.114L62.4774 100.658ZM56.194 102.169L53.7597 103.923L54.9722 105.606L56.9751 105.066L56.194 102.169ZM29.7321 65.4337L27.7778 63.1575L25.6878 64.952L27.2979 67.1871L29.7321 65.4337ZM27.6947 66.6202L30.6889 66.4338L30.4408 62.4482L26.6819 63.7963L27.6947 66.6202ZM30.8237 116.884L33.5491 118.138L33.8648 117.451L33.8179 116.697L30.8237 116.884ZM45 135.038H48V133.055L46.1752 132.278L45 135.038ZM45 151H42V154H45V151ZM155 151V154H158V151H155ZM155 135.038L153.825 132.278L152 133.055V135.038H155ZM169.272 117.098L166.313 116.603L166.167 117.475L166.518 118.287L169.272 117.098ZM177.854 65.7898L178.612 62.887L175.437 62.0584L174.895 65.2949L177.854 65.7898ZM175.454 64.5875L177.694 66.5832L179.803 64.2159L177.323 62.2407L175.454 64.5875ZM142.317 101.779L141.576 104.686L143.343 105.137L144.557 103.774L142.317 101.779ZM134.948 100.134L132.005 100.718L132.398 102.695L134.377 103.079L134.948 100.134ZM124.766 48.8769L124.185 45.9336L121.238 46.5152L121.823 49.4614L124.766 48.8769ZM121.724 48.7545L124.526 49.828L125.7 46.763L122.542 45.8681L121.724 48.7545ZM103.225 97.0245L103.18 100.024L105.276 100.056L106.027 98.0981L103.225 97.0245ZM94.0113 97.0848L91.2593 98.2793L92.0675 100.141L94.0966 100.084L94.0113 97.0848ZM74 42.5C74 43.9646 73.0994 45.2261 71.8106 45.7472L74.0596 51.3098C77.5375 49.9036 80 46.493 80 42.5H74ZM70.5 39C72.433 39 74 40.567 74 42.5H80C80 37.2533 75.7467 33 70.5 33V39ZM67 42.5C67 40.567 68.567 39 70.5 39V33C65.2533 33 61 37.2533 61 42.5H67ZM70.4561 45.9997C68.5438 45.9766 67 44.4184 67 42.5H61C61 47.7078 65.19 51.9365 70.3835 51.9993L70.4561 45.9997ZM65.4426 101.114L73.3849 49.4554L67.4546 48.5436L59.5123 100.202L65.4426 101.114ZM56.9751 105.066C58.9275 104.539 60.9732 104.047 63.104 103.592L61.8508 97.7241C59.623 98.1999 57.4738 98.717 55.4128 99.2728L56.9751 105.066ZM27.2979 67.1871L53.7597 103.923L58.6282 100.416L32.1663 63.6802L27.2979 67.1871ZM29 60.5C29 61.562 28.5307 62.5111 27.7778 63.1575L31.6864 67.7098C33.7103 65.9721 35 63.385 35 60.5H29ZM25.5 57C27.433 57 29 58.567 29 60.5H35C35 55.2533 30.7467 51 25.5 51V57ZM22 60.5C22 58.567 23.567 57 25.5 57V51C20.2533 51 16 55.2533 16 60.5H22ZM25.5 64C23.567 64 22 62.433 22 60.5H16C16 65.7467 20.2533 70 25.5 70V64ZM26.6819 63.7963C26.3166 63.9273 25.9201 64 25.5 64V70C26.6203 70 27.7015 69.8048 28.7074 69.444L26.6819 63.7963ZM33.8179 116.697L30.6889 66.4338L24.7005 66.8066L27.8295 117.07L33.8179 116.697ZM33 120.5C33 119.742 33.1709 118.96 33.5491 118.138L28.0983 115.63C27.3918 117.165 27 118.799 27 120.5H33ZM46.1752 132.278C41.6623 130.357 38.2658 128.265 36.0441 126.153C33.8273 124.046 33 122.145 33 120.5H27C27 124.344 28.9755 127.712 31.9102 130.502C34.8399 133.287 38.9433 135.72 43.8248 137.799L46.1752 132.278ZM48 151V135.038H42V151H48ZM155 148H45V154H155V148ZM152 135.038V151H158V135.038H152ZM167 120.5C167 122.145 166.173 124.046 163.956 126.153C161.734 128.265 158.338 130.357 153.825 132.278L156.175 137.799C161.057 135.72 165.16 133.287 168.09 130.502C171.024 127.712 173 124.344 173 120.5H167ZM166.518 118.287C166.849 119.053 167 119.786 167 120.5H173C173 118.903 172.654 117.363 172.026 115.908L166.518 118.287ZM174.895 65.2949L166.313 116.603L172.231 117.592L180.813 66.2847L174.895 65.2949ZM179.5 63C179.189 63 178.892 62.9602 178.612 62.887L177.097 68.6926C177.867 68.8937 178.674 69 179.5 69V63ZM183 59.5C183 61.433 181.433 63 179.5 63V69C184.747 69 189 64.7467 189 59.5H183ZM179.5 56C181.433 56 183 57.567 183 59.5H189C189 54.2533 184.747 50 179.5 50V56ZM176 59.5C176 57.567 177.567 56 179.5 56V50C174.253 50 170 54.2533 170 59.5H176ZM177.323 62.2407C176.511 61.5945 176 60.6079 176 59.5H170C170 62.5125 171.406 65.1986 173.585 66.9342L177.323 62.2407ZM144.557 103.774L177.694 66.5832L173.214 62.5918L140.077 99.7831L144.557 103.774ZM134.377 103.079C136.887 103.565 139.291 104.103 141.576 104.686L143.059 98.8719C140.654 98.2582 138.135 97.6957 135.518 97.1885L134.377 103.079ZM121.823 49.4614L132.005 100.718L137.89 99.5492L127.708 48.2923L121.823 49.4614ZM127 42.5C127 44.1964 125.79 45.6168 124.185 45.9336L125.346 51.8201C129.709 50.9591 133 47.1172 133 42.5H127ZM123.5 39C125.433 39 127 40.567 127 42.5H133C133 37.2533 128.747 33 123.5 33V39ZM120 42.5C120 40.567 121.567 39 123.5 39V33C118.253 33 114 37.2533 114 42.5H120ZM122.542 45.8681C121.072 45.4516 120 44.0971 120 42.5H114C114 46.8512 116.923 50.512 120.906 51.6408L122.542 45.8681ZM106.027 98.0981L124.526 49.828L118.923 47.6809L100.424 95.9509L106.027 98.0981ZM100 100C101.066 100 102.126 100.008 103.18 100.024L103.271 94.0248C102.187 94.0083 101.096 94 100 94V100ZM94.0966 100.084C96.0421 100.028 98.0111 100 100 100V94C97.9543 94 95.9285 94.0291 93.926 94.086L94.0966 100.084ZM70.1831 49.723L91.2593 98.2793L96.7632 95.8903L75.687 47.334L70.1831 49.723Z" fill="black" mask="url(#path-2-inside-1_1_66)"/>
<rect x="0.5" y="0.5" width="200" height="193" stroke="black"/>
</svg>
