<svg width="201" height="194" viewBox="0 0 201 194" fill="none" xmlns="http://www.w3.org/2000/svg">
<rect x="0.5" y="0.5" width="200" height="193" fill="white"/>
<mask id="path-2-inside-1_1_36" fill="white">
<path fill-rule="evenodd" clip-rule="evenodd" d="M37 21H62V41H88V21H113V41H140V21H165V41V47V67H156V93H139V121H156V147H165V173H37V147H45V121H62V93H45V67H37V47V41V21Z"/>
</mask>
<path fill-rule="evenodd" clip-rule="evenodd" d="M37 21H62V41H88V21H113V41H140V21H165V41V47V67H156V93H139V121H156V147H165V173H37V147H45V121H62V93H45V67H37V47V41V21Z" fill="white"/>
<path d="M62 21H65V18H62V21ZM37 21V18H34V21H37ZM62 41H59V44H62V41ZM88 41V44H91V41H88ZM88 21V18H85V21H88ZM113 21H116V18H113V21ZM113 41H110V44H113V41ZM140 41V44H143V41H140ZM140 21V18H137V21H140ZM165 21H168V18H165V21ZM165 67V70H168V67H165ZM156 67V64H153V67H156ZM156 93V96H159V93H156ZM139 93V90H136V93H139ZM139 121H136V124H139V121ZM156 121H159V118H156V121ZM156 147H153V150H156V147ZM165 147H168V144H165V147ZM165 173V176H168V173H165ZM37 173H34V176H37V173ZM37 147V144H34V147H37ZM45 147V150H48V147H45ZM45 121V118H42V121H45ZM62 121V124H65V121H62ZM62 93H65V90H62V93ZM45 93H42V96H45V93ZM45 67H48V64H45V67ZM37 67H34V70H37V67ZM62 18H37V24H62V18ZM65 41V21H59V41H65ZM88 38H62V44H88V38ZM85 21V41H91V21H85ZM113 18H88V24H113V18ZM116 41V21H110V41H116ZM140 38H113V44H140V38ZM137 21V41H143V21H137ZM165 18H140V24H165V18ZM168 41V21H162V41H168ZM168 47V41H162V47H168ZM168 67V47H162V67H168ZM156 70H165V64H156V70ZM159 93V67H153V93H159ZM139 96H156V90H139V96ZM142 121V93H136V121H142ZM139 124H156V118H139V124ZM153 121V147H159V121H153ZM156 150H165V144H156V150ZM162 147V173H168V147H162ZM165 170H37V176H165V170ZM40 173V147H34V173H40ZM37 150H45V144H37V150ZM48 147V121H42V147H48ZM45 124H62V118H45V124ZM59 93V121H65V93H59ZM45 96H62V90H45V96ZM42 67V93H48V67H42ZM37 70H45V64H37V70ZM34 47V67H40V47H34ZM34 41V47H40V41H34ZM34 21V41H40V21H34Z" fill="black" mask="url(#path-2-inside-1_1_36)"/>
<rect x="0.5" y="0.5" width="200" height="193" stroke="black"/>
</svg>
